<svg width="25" height="20" fill="none" xmlns="http://www.w3.org/2000/svg"><path d="m22.185.905.621.966c-4.278 2.806-6.417 5.612-6.417 8.418 0 1.426.621 2.254 1.863 2.484l2.898-2.691c.92.322 1.748.92 2.484 1.794.782.828 1.173 1.909 1.173 3.243 0 1.334-.529 2.484-1.587 3.45-1.058.92-2.461 1.38-4.209 1.38-1.702 0-3.128-.575-4.278-1.725-1.104-1.196-1.656-2.829-1.656-4.899 0-4.508 3.036-8.648 9.108-12.42Zm-12.972 0 .621.966c-4.278 2.806-6.417 5.612-6.417 8.418 0 1.426.621 2.254 1.863 2.484l2.898-2.691c.92.322 1.748.92 2.484 1.794.782.828 1.173 1.909 1.173 3.243 0 1.334-.529 2.484-1.587 3.45-1.058.92-2.461 1.38-4.209 1.38-1.702 0-3.128-.575-4.278-1.725C.657 17.028.105 15.395.105 13.325c0-4.508 3.036-8.648 9.108-12.42Z" fill="#FF6B08"/></svg>